# xmcd
# Track frame offsets:
# 150
# 14622
# 29081
# 43134
# 56635
# 72224
# 87960
# 96690
# 110499
# 126019
# 141497
# 165067
# 177755
#
# Disc length: 2514 seconds
# Revision: 0
# Processed by: cddbd v1.5.2PL0 Copyright (c) Steve Scherf et al.
# Submitted via: VisiTrax 2.10.3.257 - For more info visit www.synapsa.com
#
DISCID=b909d00d
DTITLE=Gumbo - Everyday Sensation
DYEAR=2004
DGENRE=Blues
TTITLE0=Lonesome, Sad And Blue
TTITLE1=Everyday Sensation
TTITLE2=Cold Cold Heart
TTITLE3=I Don`t Wanna Grow Up
TTITLE4=Wheelin` And Dealin`
TTITLE5=Free Single and Disengaged
TTITLE6=Forever And A Day
TTITLE7=The Clown
TTITLE8=Call Up The Doctor
TTITLE9=Go To The Mardi Gras
TTITLE10=Little Speedy Weedy
TTITLE11=Play This Song Mr. DJ
TTITLE12=Little Liza Jane
EXTD=
EXTT0=
EXTT1=
EXTT2=
EXTT3=
EXTT4=
EXTT5=
EXTT6=
EXTT7=
EXTT8=
EXTT9=
EXTT10=
EXTT11=
EXTT12=
PLAYORDER=
